<svg xmlns="http://www.w3.org/2000/svg" width="22" height="22" viewBox="0 0 22 22">
  <g id="Raggruppa_32173" data-name="Raggruppa 32173" transform="translate(-1075 -16)">
    <g id="Ellisse_11" data-name="Ellisse 11" transform="translate(1075 16)" fill="#fff" stroke="#d6d6d6" stroke-width="1">
      <circle cx="11" cy="11" r="11" stroke="none"/>
      <circle cx="11" cy="11" r="10.5" fill="none"/>
    </g>
    <g id="Raggruppa_32151" data-name="Raggruppa 32151" transform="translate(1076 17.003)">
      <g id="Raggruppa_32148" data-name="Raggruppa 32148" transform="translate(0.004 0.001)">
        <g id="Raggruppa_32152" data-name="Raggruppa 32152">
          <path id="Tracciato_108839" data-name="Tracciato 108839" d="M7.506,99.906a9.807,9.807,0,0,1,0-18.8" transform="translate(-0.5 -80.511)" fill="#2b3990"/>
          <path id="Tracciato_108840" data-name="Tracciato 108840" d="M7.506,99.906a9.807,9.807,0,0,1,0-18.8" transform="translate(-0.5 -80.511)" fill="none"/>
          <path id="Tracciato_108841" data-name="Tracciato 108841" d="M1889.39,81.108a9.807,9.807,0,0,1,0,18.8" transform="translate(-1876.403 -80.51)" fill="#ed1c24"/>
          <path id="Tracciato_108842" data-name="Tracciato 108842" d="M1889.39,81.108a9.807,9.807,0,0,1,0,18.8" transform="translate(-1876.403 -80.51)" fill="none"/>
        </g>
      </g>
    </g>
  </g>
</svg>
