<svg xmlns="http://www.w3.org/2000/svg" width="22" height="22" viewBox="0 0 22 22">
  <g id="Raggruppa_32174" data-name="Raggruppa 32174" transform="translate(-1134 -16)">
    <g id="Ellisse_12" data-name="Ellisse 12" transform="translate(1134 16)" fill="#fff" stroke="#efefef" stroke-width="1">
      <circle cx="11" cy="11" r="11" stroke="none"/>
      <circle cx="11" cy="11" r="10.5" fill="none"/>
    </g>
    <g id="Raggruppa_32153" data-name="Raggruppa 32153" transform="translate(1135 17.003)">
      <g id="Raggruppa_32148" data-name="Raggruppa 32148" transform="translate(0.004 0.001)">
        <g id="Raggruppa_32152" data-name="Raggruppa 32152">
          <path id="Tracciato_108839" data-name="Tracciato 108839" d="M7.506,99.906a9.807,9.807,0,0,1,0-18.8" transform="translate(-0.5 -80.511)" fill="#2d930c"/>
          <path id="Tracciato_108840" data-name="Tracciato 108840" d="M7.506,99.906a9.807,9.807,0,0,1,0-18.8" transform="translate(-0.5 -80.511)" fill="none"/>
          <path id="Tracciato_108841" data-name="Tracciato 108841" d="M1889.39,81.108a9.807,9.807,0,0,1,0,18.8" transform="translate(-1876.403 -80.51)" fill="#ed1c24"/>
          <path id="Tracciato_108842" data-name="Tracciato 108842" d="M1889.39,81.108a9.807,9.807,0,0,1,0,18.8" transform="translate(-1876.403 -80.51)" fill="none"/>
          <path id="Tracciato_108843" data-name="Tracciato 108843" d="M951.949,1.067a11.071,11.071,0,0,0-7.006,0V19.922a11.071,11.071,0,0,0,7.006,0Z" transform="translate(-938.45 -0.498)" fill="#fff"/>
        </g>
      </g>
    </g>
  </g>
</svg>
